<?xml version="1.0" encoding="UTF-8"?>
<svg xmlns="http://www.w3.org/2000/svg" xmlns:xlink="http://www.w3.org/1999/xlink" width="32px" height="32px" viewBox="0 0 32 32" version="1.1">
<g id="surface1">
<path style=" stroke:none;fill-rule:nonzero;fill:rgb(0%,0%,0%);fill-opacity:1;" d="M 6.011719 3.875 C 4.957031 4.03125 4.03125 4.976562 3.875 6.070312 C 3.800781 6.585938 3.800781 12.40625 3.875 12.925781 C 4.039062 14.050781 4.886719 14.929688 6.007812 15.125 C 6.273438 15.167969 7.507812 15.1875 9.75 15.175781 C 13.011719 15.15625 13.101562 15.148438 13.457031 15.019531 C 14.179688 14.742188 14.742188 14.179688 15.019531 13.457031 C 15.148438 13.101562 15.15625 13.011719 15.175781 9.75 C 15.1875 7.507812 15.167969 6.273438 15.125 6.007812 C 14.929688 4.882812 14.054688 4.039062 12.925781 3.875 C 12.449219 3.804688 6.488281 3.804688 6.011719 3.875 Z M 6.011719 3.875 "/>
<path style=" stroke:none;fill-rule:nonzero;fill:rgb(0%,0%,0%);fill-opacity:1;" d="M 19.019531 3.875 C 18.242188 3.992188 17.480469 4.539062 17.132812 5.238281 C 16.820312 5.851562 16.804688 6.105469 16.824219 9.75 C 16.84375 13.011719 16.851562 13.101562 16.980469 13.457031 C 17.257812 14.179688 17.820312 14.742188 18.542969 15.019531 C 18.898438 15.148438 18.988281 15.15625 22.25 15.175781 C 24.511719 15.1875 25.726562 15.167969 25.992188 15.125 C 27.144531 14.925781 27.96875 14.054688 28.132812 12.875 C 28.167969 12.605469 28.1875 11.09375 28.175781 9.167969 C 28.15625 5.929688 28.148438 5.90625 28.011719 5.550781 C 27.71875 4.824219 27.175781 4.28125 26.445312 3.988281 C 26.101562 3.851562 26.054688 3.84375 22.71875 3.835938 C 20.863281 3.832031 19.199219 3.84375 19.019531 3.875 Z M 19.019531 3.875 "/>
<path style=" stroke:none;fill-rule:nonzero;fill:rgb(0%,0%,0%);fill-opacity:1;" d="M 5.875 16.898438 C 4.789062 17.144531 4.023438 17.992188 3.867188 19.125 C 3.832031 19.386719 3.8125 20.914062 3.824219 22.832031 L 3.84375 26.09375 L 4.007812 26.488281 C 4.3125 27.210938 4.789062 27.6875 5.511719 27.992188 L 5.90625 28.15625 L 9.167969 28.175781 C 11.085938 28.1875 12.613281 28.167969 12.875 28.132812 C 14.050781 27.96875 14.925781 27.136719 15.125 25.992188 C 15.167969 25.726562 15.1875 24.492188 15.175781 22.25 C 15.15625 18.988281 15.148438 18.898438 15.019531 18.542969 C 14.742188 17.820312 14.179688 17.257812 13.457031 16.980469 C 13.101562 16.84375 13.023438 16.84375 9.65625 16.832031 C 7.09375 16.824219 6.132812 16.835938 5.875 16.898438 Z M 5.875 16.898438 "/>
<path style=" stroke:none;fill-rule:nonzero;fill:rgb(0%,0%,0%);fill-opacity:1;" d="M 18.875 16.898438 C 17.84375 17.125 17.074219 17.917969 16.882812 18.960938 C 16.789062 19.46875 16.789062 25.53125 16.882812 26.03125 C 17.085938 27.148438 17.96875 27.976562 19.125 28.132812 C 19.394531 28.167969 20.90625 28.1875 22.832031 28.175781 C 26.042969 28.15625 26.101562 28.148438 26.445312 28.011719 C 27.175781 27.71875 27.71875 27.175781 28.011719 26.449219 C 28.148438 26.09375 28.15625 26.070312 28.175781 22.832031 C 28.1875 20.90625 28.167969 19.394531 28.132812 19.125 C 27.976562 17.960938 27.15625 17.085938 26.039062 16.882812 C 25.507812 16.78125 19.335938 16.800781 18.875 16.898438 Z M 18.875 16.898438 "/>
</g>
</svg>
