<?xml version="1.0" encoding="UTF-8"?>
<svg xmlns="http://www.w3.org/2000/svg" xmlns:xlink="http://www.w3.org/1999/xlink" width="32px" height="32px" viewBox="0 0 32 32" version="1.1">
<g id="surface1">
<path style=" stroke:none;fill-rule:nonzero;fill:rgb(0%,0%,0%);fill-opacity:1;" d="M 14.960938 1.21875 C 14.488281 1.320312 13.917969 1.550781 13.449219 1.820312 C 13.179688 1.976562 11.488281 3.632812 6.707031 8.40625 C -0.382812 15.476562 0.0390625 15.011719 0.03125 15.875 C 0.03125 16.445312 0.195312 16.804688 0.625 17.210938 C 1.167969 17.71875 1.988281 17.824219 2.65625 17.480469 C 2.894531 17.355469 4.4375 15.851562 9.125 11.15625 C 12.59375 7.6875 15.382812 4.9375 15.511719 4.867188 C 15.644531 4.804688 15.863281 4.75 16 4.75 C 16.136719 4.75 16.355469 4.804688 16.488281 4.867188 C 16.617188 4.9375 19.40625 7.6875 22.875 11.15625 C 27.5625 15.851562 29.105469 17.355469 29.34375 17.480469 C 30.011719 17.824219 30.832031 17.71875 31.375 17.210938 C 31.792969 16.820312 31.96875 16.445312 31.96875 15.90625 C 31.96875 15.0625 32.023438 15.136719 29.179688 12.28125 L 26.625 9.710938 L 26.625 6.894531 C 26.625 5.023438 26.601562 3.957031 26.554688 3.738281 C 26.367188 2.875 25.667969 2.3125 24.78125 2.3125 C 24.042969 2.3125 23.445312 2.695312 23.113281 3.367188 C 22.980469 3.632812 22.96875 3.757812 22.949219 4.832031 L 22.925781 6.011719 L 20.917969 4.019531 C 18.855469 1.980469 18.617188 1.78125 17.8125 1.457031 C 17 1.132812 15.820312 1.03125 14.960938 1.21875 Z M 14.960938 1.21875 "/>
<path style=" stroke:none;fill-rule:nonzero;fill:rgb(0%,0%,0%);fill-opacity:1;" d="M 15.6875 8.320312 C 15.5 8.394531 4.65625 19.207031 4.523438 19.449219 C 4.449219 19.59375 4.4375 20.28125 4.4375 23.773438 C 4.4375 26.53125 4.460938 28.042969 4.507812 28.261719 C 4.6875 29.132812 5.382812 30.070312 6.164062 30.480469 C 6.90625 30.875 6.917969 30.875 10.105469 30.875 L 13 30.875 L 13 22.75 L 19 22.75 L 19 30.875 L 21.894531 30.875 C 25.082031 30.875 25.09375 30.875 25.835938 30.480469 C 26.617188 30.070312 27.3125 29.132812 27.492188 28.261719 C 27.539062 28.042969 27.5625 26.53125 27.5625 23.773438 C 27.5625 20.28125 27.550781 19.59375 27.476562 19.449219 C 27.332031 19.1875 16.492188 8.386719 16.292969 8.3125 C 16.082031 8.238281 15.894531 8.238281 15.6875 8.320312 Z M 15.6875 8.320312 "/>
</g>
</svg>
