<?xml version="1.0" encoding="UTF-8"?>
<svg xmlns="http://www.w3.org/2000/svg" xmlns:xlink="http://www.w3.org/1999/xlink" width="32px" height="32px" viewBox="0 0 32 32" version="1.1">
<g id="surface1">
<path style=" stroke:none;fill-rule:nonzero;fill:rgb(0%,0%,0%);fill-opacity:1;" d="M 14.375 0.105469 C 11.304688 0.417969 8.335938 1.644531 5.90625 3.605469 C 5.113281 4.242188 3.851562 5.542969 3.261719 6.332031 C 1.730469 8.363281 0.726562 10.625 0.289062 13.023438 C 0.125 13.886719 0 15.039062 0 15.636719 L 0 16 L 2.480469 16 L 2.523438 15.242188 C 2.886719 8.8125 7.761719 3.542969 14.167969 2.648438 C 15.039062 2.53125 16.761719 2.519531 17.59375 2.625 C 20.1875 2.949219 22.648438 4.011719 24.59375 5.636719 C 25.617188 6.488281 26.675781 7.695312 27.332031 8.75 L 27.5625 9.125 L 23.25 9.125 L 23.25 11.625 L 32 11.625 L 32 2.875 L 29.5 2.875 L 29.488281 5.164062 L 29.46875 7.449219 L 29.15625 6.992188 C 28.644531 6.238281 28.144531 5.636719 27.382812 4.851562 C 24.832031 2.238281 21.539062 0.601562 17.9375 0.15625 C 17.230469 0.0703125 15.023438 0.0390625 14.375 0.105469 Z M 14.375 0.105469 "/>
<path style=" stroke:none;fill-rule:nonzero;fill:rgb(0%,0%,0%);fill-opacity:1;" d="M 14.75 6.144531 L 14.75 7.542969 L 14.332031 7.707031 C 13.03125 8.21875 11.960938 9.4375 11.648438 10.78125 C 11.5 11.425781 11.554688 12.617188 11.761719 13.261719 C 12.050781 14.136719 12.519531 14.832031 13.289062 15.5 C 13.800781 15.949219 14.3125 16.28125 15.425781 16.867188 C 17.125 17.78125 17.679688 18.148438 18.0625 18.632812 C 18.375 19.03125 18.457031 19.304688 18.425781 19.882812 C 18.367188 21.023438 17.507812 21.980469 16.332031 22.199219 C 15.585938 22.335938 14.8125 22.050781 14.21875 21.429688 C 14.023438 21.230469 13.792969 20.90625 13.699219 20.707031 C 13.542969 20.367188 13.53125 20.273438 13.511719 19.386719 L 13.488281 18.4375 L 10.988281 18.4375 L 11.019531 19.511719 C 11.050781 20.738281 11.117188 21.070312 11.507812 21.855469 C 12.09375 23.0625 13.132812 24 14.363281 24.4375 L 14.75 24.582031 L 14.75 27.25 L 17.1875 27.25 L 17.1875 24.582031 L 17.457031 24.5 C 18.144531 24.292969 19.023438 23.726562 19.570312 23.136719 C 20.480469 22.148438 20.9375 21.03125 20.9375 19.742188 C 20.9375 18.519531 20.5625 17.625 19.65625 16.710938 C 19.007812 16.050781 18.304688 15.574219 16.875 14.8125 C 14.667969 13.644531 14.132812 13.101562 14.074219 11.960938 C 14.023438 11.070312 14.355469 10.460938 15.101562 10.09375 C 15.417969 9.9375 15.539062 9.914062 15.96875 9.914062 C 16.5625 9.914062 16.945312 10.070312 17.34375 10.46875 C 17.78125 10.898438 17.84375 11.101562 17.863281 12.105469 L 17.882812 13 L 20.386719 13 L 20.363281 11.917969 C 20.335938 10.960938 20.320312 10.792969 20.167969 10.386719 C 20.082031 10.132812 19.914062 9.769531 19.800781 9.574219 C 19.332031 8.78125 18.40625 8 17.570312 7.695312 L 17.1875 7.550781 L 17.1875 4.75 L 14.75 4.75 Z M 14.75 6.144531 "/>
<path style=" stroke:none;fill-rule:nonzero;fill:rgb(0%,0%,0%);fill-opacity:1;" d="M 29.414062 16.757812 C 29.105469 22.21875 25.519531 26.96875 20.363281 28.738281 C 18.914062 29.238281 17.648438 29.445312 16.0625 29.449219 C 14.414062 29.449219 13.269531 29.269531 11.757812 28.773438 C 8.96875 27.863281 6.550781 26.023438 4.875 23.5625 L 4.429688 22.90625 L 6.59375 22.886719 L 8.75 22.875 L 8.75 20.375 L 0 20.375 L 0 29.125 L 2.5 29.125 L 2.511719 26.835938 L 2.53125 24.550781 L 2.84375 25.007812 C 3.355469 25.761719 3.855469 26.363281 4.617188 27.148438 C 7.230469 29.824219 10.644531 31.480469 14.355469 31.882812 C 15.398438 31.988281 17.707031 31.925781 18.644531 31.757812 C 22.039062 31.148438 24.855469 29.699219 27.226562 27.34375 C 30.082031 24.5 31.695312 20.855469 31.914062 16.792969 L 31.957031 16 L 29.457031 16 Z M 29.414062 16.757812 "/>
</g>
</svg>
